<?xml version="1.0" standalone="no"?>
<!DOCTYPE svg PUBLIC "-//W3C//DTD SVG 20010904//EN"
 "http://www.w3.org/TR/2001/REC-SVG-20010904/DTD/svg10.dtd">
<svg version="1.0" xmlns="http://www.w3.org/2000/svg"
 width="240.000000pt" height="236.000000pt" viewBox="0 0 240.000000 236.000000"
 preserveAspectRatio="xMidYMid meet">
<metadata>
Created by potrace 1.15, written by Peter Selinger 2001-2017
</metadata>
<g transform="translate(0.000000,236.000000) scale(0.100000,-0.100000)"
fill="#000000" stroke="none">
<path d="M1651 1874 c-168 -45 -286 -179 -342 -389 -30 -111 -34 -439 -6 -558
69 -291 300 -459 562 -408 l41 8 129 -114 c71 -62 133 -113 136 -113 4 0 39
29 78 65 l70 64 -107 92 c-59 51 -111 96 -116 100 -5 4 10 29 34 56 49 56 80
113 112 209 21 64 23 85 23 304 0 195 -3 246 -18 300 -42 154 -134 282 -244
342 -102 56 -240 72 -352 42z m203 -186 c58 -17 128 -90 154 -160 57 -151 56
-505 0 -657 -42 -112 -144 -180 -257 -169 -103 10 -173 75 -212 196 -19 56
-23 97 -27 253 -6 277 20 401 102 483 61 62 148 81 240 54z"/>
<path d="M190 1200 l0 -680 115 0 115 0 0 265 0 265 113 0 113 0 130 -265 129
-264 118 -1 c64 0 117 3 117 6 0 3 -63 134 -140 291 -77 158 -139 287 -138
288 63 31 89 48 128 85 91 86 133 218 111 350 -21 132 -87 222 -202 280 -97
50 -178 60 -460 60 l-249 0 0 -680z m575 469 c69 -35 108 -99 113 -184 5 -76
-10 -125 -51 -171 -57 -66 -94 -78 -259 -82 l-148 -4 0 237 0 237 148 -4 c135
-3 152 -5 197 -29z"/>
</g>
</svg>
